<?xml version="1.0" standalone="no"?>
<!DOCTYPE svg PUBLIC "-//W3C//DTD SVG 20010904//EN"
 "http://www.w3.org/TR/2001/REC-SVG-20010904/DTD/svg10.dtd">
<svg version="1.0" xmlns="http://www.w3.org/2000/svg"
 width="310.000000pt" height="310.000000pt" viewBox="0 0 310.000000 310.000000"
 preserveAspectRatio="xMidYMid meet">
<metadata>
Created by potrace 1.14, written by Peter Selinger 2001-2017
</metadata>
<g transform="translate(0.000000,310.000000) scale(0.100000,-0.100000)"
fill="#000000" stroke="none">
<path d="M1300 3079 c-319 -20 -597 -211 -739 -510 -59 -123 -73 -184 -78
-344 -5 -159 6 -231 56 -360 40 -105 112 -212 205 -306 62 -63 77 -74 87 -63
7 9 31 14 65 14 l54 0 0 -40 c0 -35 -3 -40 -24 -40 -13 0 -30 -7 -37 -17 -13
-15 -11 -16 24 -10 36 6 37 5 37 -25 l0 -31 -25 23 -24 23 -30 -25 c-79 -67
-142 -163 -178 -273 -23 -68 -27 -98 -27 -200 0 -128 12 -193 61 -319 l27 -68
52 6 c29 3 58 8 66 11 8 3 27 -25 53 -82 53 -114 118 -212 200 -300 36 -40 66
-76 66 -80 -1 -4 5 -8 12 -9 6 0 17 -2 22 -3 22 -5 150 1 157 7 4 4 9 45 12
92 3 47 6 96 7 110 0 14 7 -24 14 -83 7 -60 16 -112 20 -115 4 -4 40 -9 81
-12 68 -5 77 -3 96 17 12 12 25 20 31 16 6 -3 7 -1 3 5 -3 6 14 39 38 74 87
124 169 315 217 501 11 45 25 87 30 93 5 6 8 27 7 45 -3 61 25 249 37 249 20
0 98 -56 145 -104 24 -25 49 -46 55 -46 5 1 39 27 74 59 49 45 67 56 77 47 6
-6 10 -14 7 -18 -2 -4 2 -5 10 -2 9 3 23 43 37 102 12 53 24 107 27 120 5 22
8 23 72 17 49 -5 93 -1 170 15 85 17 109 19 138 9 46 -15 99 -63 124 -111 11
-21 24 -36 29 -33 15 9 48 123 80 274 l30 145 -37 39 c-64 65 -105 81 -208 81
-49 0 -122 -4 -161 -8 -61 -8 -76 -6 -119 13 -26 12 -50 19 -52 17 -4 -4 -136
-561 -145 -610 -2 -16 -18 -1 -72 63 -76 91 -179 184 -267 241 -32 20 -65 44
-74 53 -18 19 -60 23 -70 7 -3 -5 0 -10 7 -10 31 0 36 -21 11 -48 -14 -15 -36
-49 -49 -77 l-24 -50 6 50 c4 28 6 88 7 135 0 62 2 75 7 50 l7 -35 2 39 c1 30
4 37 17 32 9 -3 25 -6 36 -6 16 0 19 -5 14 -24 -6 -23 -4 -23 19 -13 14 7 25
19 25 27 0 8 16 28 36 43 101 81 224 286 265 442 31 115 31 308 1 427 -41 164
-121 306 -240 423 -189 187 -418 271 -692 254z"/>
<path d="M1840 1470 c0 -11 7 -20 15 -20 8 0 15 9 15 20 0 11 -7 20 -15 20 -8
0 -15 -9 -15 -20z"/>
<path d="M2357 891 c-4 -17 -3 -21 5 -13 5 5 8 16 6 23 -3 8 -7 3 -11 -10z"/>
<path d="M2276 833 c-3 -10 -30 -126 -61 -258 -31 -132 -69 -294 -85 -360 -47
-199 -45 -187 -19 -183 20 3 26 14 41 78 135 568 168 724 156 731 -19 13 -26
11 -32 -8z"/>
</g>
</svg>
